<svg width="127" height="34" viewBox="0 0 127 34" fill="none" xmlns="http://www.w3.org/2000/svg">
<g clip-path="url(#clip0_668_1520)">
<path d="M32.2325 12.4139C33.1746 13.3561 33.1746 14.8838 32.2325 15.826L15.1141 32.9446C14.1719 33.8867 12.6442 33.8867 11.702 32.9446L0.929331 22.1719C-0.012902 21.2294 -0.012902 19.7019 0.929331 18.7597L18.0478 1.64122C18.99 0.699021 20.5177 0.699021 21.4599 1.64122L32.2325 12.4139Z" fill="#121212"/>
<path d="M36.2533 15.826C37.1955 14.8838 37.1955 13.3561 36.2533 12.4139L28.3321 4.49277L31.1839 1.64122C32.126 0.699021 33.6537 0.699021 34.5958 1.64122L45.3684 12.4139C46.3106 13.3561 46.3106 14.8838 45.3684 15.826L28.2501 32.9446C27.3079 33.8867 25.7803 33.8867 24.8377 32.9446L21.9863 30.0928L36.2533 15.826Z" fill="#121212"/>
<path d="M64.2608 18.4974C65.17 18.667 65.9175 19.1217 66.5034 19.8615C67.0889 20.6013 67.382 21.449 67.382 22.4049C67.382 23.2678 67.1661 24.0306 66.7346 24.6937C66.3184 25.3411 65.7096 25.8494 64.9082 26.2193C64.1068 26.5893 63.1586 26.7742 62.0645 26.7742H55.1055V10.6367H61.7637C62.8582 10.6367 63.7984 10.814 64.5845 11.1685C65.3859 11.523 65.9871 12.0162 66.3876 12.6482C66.8038 13.2801 67.0121 13.9968 67.0121 14.7983C67.0121 15.7385 66.7575 16.5246 66.2489 17.1565C65.7559 17.7884 65.0932 18.2354 64.2608 18.4974ZM58.3421 17.2952H61.3013C62.0721 17.2952 62.6656 17.1257 63.0818 16.7866C63.4976 16.4321 63.7059 15.9311 63.7059 15.2838C63.7059 14.6365 63.4976 14.1355 63.0818 13.781C62.6656 13.4265 62.0721 13.2493 61.3013 13.2493H58.3421V17.2952ZM61.602 24.1388C62.3882 24.1388 62.997 23.9538 63.4284 23.5839C63.8756 23.2139 64.0988 22.69 64.0988 22.0116C64.0988 21.3179 63.8676 20.7787 63.4051 20.3933C62.9431 19.9925 62.3186 19.7922 61.5325 19.7922H58.3421V24.1388H61.602Z" fill="#121212"/>
<path d="M74.7231 26.9829C73.4902 26.9829 72.3804 26.7131 71.394 26.1735C70.4076 25.6186 69.6291 24.8405 69.0589 23.8384C68.504 22.8367 68.2266 21.6807 68.2266 20.3706C68.2266 19.0605 68.5117 17.9045 69.0819 16.9026C69.6677 15.9008 70.4615 15.1301 71.4632 14.5906C72.4652 14.0358 73.5827 13.7583 74.8156 13.7583C76.0485 13.7583 77.166 14.0358 78.168 14.5906C79.1697 15.1301 79.9558 15.9008 80.526 16.9026C81.1119 17.9045 81.4046 19.0605 81.4046 20.3706C81.4046 21.6807 81.1043 22.8367 80.5031 23.8384C79.9172 24.8405 79.1158 25.6186 78.0985 26.1735C77.0968 26.7131 75.9717 26.9829 74.7231 26.9829ZM74.7231 24.1621C75.309 24.1621 75.8559 24.0234 76.3645 23.7459C76.8885 23.4532 77.3047 23.0217 77.6131 22.4515C77.9215 21.8809 78.0755 21.1873 78.0755 20.3706C78.0755 19.1529 77.7518 18.2204 77.1044 17.5731C76.4727 16.9103 75.6942 16.5789 74.7694 16.5789C73.8445 16.5789 73.0664 16.9103 72.4343 17.5731C71.8178 18.2204 71.5094 19.1529 71.5094 20.3706C71.5094 21.5882 71.8102 22.5283 72.4114 23.191C73.0278 23.8384 73.7983 24.1621 74.7231 24.1621Z" fill="#121212"/>
<path d="M86.0901 15.9545C86.5063 15.2764 87.046 14.7446 87.7086 14.3592C88.387 13.9739 89.1575 13.7812 90.0208 13.7812V17.1799H89.1651C88.1477 17.1799 87.3773 17.4189 86.8533 17.8967C86.3447 18.3745 86.0901 19.2067 86.0901 20.3935V26.7745H82.8535V13.9662H86.0901V15.9545Z" fill="#121212"/>
<path d="M90.4434 20.3242C90.4434 19.0295 90.6976 17.8812 91.2062 16.8794C91.7302 15.8775 92.4391 15.1069 93.3334 14.5674C94.2273 14.0279 95.2214 13.7582 96.3155 13.7582C97.1479 13.7582 97.9416 13.9432 98.6972 14.3131C99.4524 14.6676 100.053 15.1454 100.5 15.7465V9.66602H103.783V26.7746H100.5V24.879C100.1 25.5107 99.5372 26.0194 98.8126 26.4046C98.088 26.7902 97.248 26.9828 96.2926 26.9828C95.2137 26.9828 94.2273 26.7054 93.3334 26.1505C92.4391 25.5956 91.7302 24.8171 91.2062 23.8154C90.6976 22.798 90.4434 21.6343 90.4434 20.3242ZM100.524 20.3705C100.524 19.5844 100.369 18.914 100.061 18.3591C99.7528 17.7888 99.3366 17.3572 98.8126 17.0643C98.2887 16.7561 97.7261 16.602 97.125 16.602C96.5238 16.602 95.9689 16.7484 95.4602 17.0412C94.9515 17.3341 94.5353 17.7656 94.2116 18.336C93.9036 18.8908 93.7492 19.5536 93.7492 20.3242C93.7492 21.0951 93.9036 21.7731 94.2116 22.3589C94.5353 22.9291 94.9515 23.3682 95.4602 23.6767C95.9842 23.9847 96.5391 24.1391 97.125 24.1391C97.7261 24.1391 98.2887 23.9927 98.8126 23.6996C99.3366 23.3916 99.7528 22.9597 100.061 22.4052C100.369 21.8346 100.524 21.1566 100.524 20.3705Z" fill="#121212"/>
<path d="M117.926 20.0931C117.926 20.5555 117.895 20.9717 117.834 21.3417H108.47C108.548 22.2665 108.871 22.9908 109.441 23.5147C110.012 24.0391 110.713 24.3008 111.545 24.3008C112.748 24.3008 113.603 23.7845 114.112 22.7519H117.603C117.233 23.9848 116.524 25.0021 115.476 25.8035C114.428 26.5897 113.14 26.9829 111.614 26.9829C110.382 26.9829 109.272 26.7131 108.285 26.1735C107.314 25.6186 106.551 24.8405 105.997 23.8384C105.457 22.8367 105.188 21.6807 105.188 20.3706C105.188 19.0451 105.457 17.8813 105.997 16.8795C106.536 15.8776 107.291 15.107 108.262 14.5675C109.233 14.028 110.351 13.7583 111.614 13.7583C112.832 13.7583 113.919 14.0204 114.874 14.5444C115.846 15.0684 116.593 15.816 117.117 16.787C117.657 17.7426 117.926 18.8447 117.926 20.0931ZM114.574 19.1683C114.558 18.336 114.258 17.6733 113.672 17.18C113.087 16.6714 112.37 16.4171 111.522 16.4171C110.721 16.4171 110.043 16.6637 109.488 17.1569C108.948 17.6347 108.617 18.3052 108.493 19.1683H114.574Z" fill="#121212"/>
<path d="M122.602 15.9545C123.018 15.2764 123.558 14.7446 124.22 14.3592C124.899 13.9739 125.669 13.7812 126.533 13.7812V17.1799H125.677C124.66 17.1799 123.889 17.4189 123.365 17.8967C122.856 18.3745 122.602 19.2067 122.602 20.3935V26.7745H119.365V13.9662H122.602V15.9545Z" fill="#121212"/>
</g>
<defs>
<clipPath id="clip0_668_1520">
<rect width="127" height="34" fill="white"/>
</clipPath>
</defs>
</svg>
