<svg width="150" height="34" viewBox="0 0 150 34" fill="none" xmlns="http://www.w3.org/2000/svg">
<g clip-path="url(#clip0_668_1510)">
<path fill-rule="evenodd" clip-rule="evenodd" d="M6.30291 9.20779C8.79943 5.84976 12.7972 3.6742 17.3031 3.6742C21.8354 3.6742 25.8535 5.87542 28.347 9.26713C28.2409 9.37628 28.1442 9.48937 28.0568 9.60234C27.6 10.1938 27.2564 10.9557 26.981 11.7293C26.4266 13.2853 26.0037 15.3178 25.6121 17.2211L25.5774 17.3922C25.1867 19.292 24.8236 21.0588 24.3845 22.3704C24.1873 22.9596 24.0002 23.3761 23.8343 23.643C23.6612 23.374 23.4648 22.9524 23.257 22.3547C22.7874 21.0054 22.3925 19.1703 21.9738 17.2107L21.9602 17.1466C21.5579 15.2644 21.1311 13.2673 20.599 11.7386C20.3316 10.9707 20.0036 10.2165 19.5746 9.6305C19.1535 9.05541 18.4527 8.40638 17.4276 8.40638C16.409 8.40638 15.7049 9.04837 15.2778 9.61701C14.8405 10.1992 14.4995 10.9503 14.2187 11.7186C13.6531 13.2657 13.1907 15.2894 12.7603 17.1953L12.7159 17.3922C12.2897 19.2802 11.8913 21.0452 11.4391 22.3593C11.2665 22.8612 11.1036 23.2429 10.9561 23.5157C10.812 23.2442 10.6532 22.865 10.4853 22.3674C10.0514 21.0813 9.67138 19.3656 9.26321 17.5229L9.19177 17.2004C8.76884 15.2934 8.31003 13.266 7.73638 11.7141C7.45136 10.9429 7.10275 10.188 6.65161 9.6031C6.54946 9.47071 6.43336 9.33632 6.30291 9.20779ZM4.79195 11.7862C4.91085 12.021 5.03663 12.312 5.16669 12.6639C5.66322 14.0072 6.0839 15.8402 6.5171 17.7936L6.60138 18.1742C6.99581 19.9566 7.4061 21.8106 7.88935 23.2429C8.14637 24.0048 8.45676 24.751 8.85597 25.3309C9.23347 25.8794 9.91071 26.5878 10.9521 26.5878C11.9905 26.5878 12.6693 25.8828 13.0494 25.3368C13.452 24.7582 13.7675 24.0129 14.0297 23.2506C14.5324 21.7898 14.9604 19.8923 15.37 18.0764L15.4327 17.7987C15.874 15.8442 16.2988 14.0075 16.7918 12.6593C17.0201 12.0347 17.2339 11.5995 17.42 11.3296C17.5964 11.5972 17.7979 12.0254 18.0116 12.6393C18.4813 13.9886 18.8759 15.8238 19.2947 17.7833L19.3084 17.8475C19.7106 19.7297 20.1374 21.7268 20.6695 23.2552C20.9368 24.0235 21.2649 24.7777 21.6939 25.3635C22.115 25.9387 22.8158 26.5878 23.8407 26.5878C24.8711 26.5878 25.5693 25.9328 25.9854 25.3525C26.408 24.7637 26.7257 24.0069 26.9823 23.24C27.4757 21.7668 27.8681 19.8554 28.2418 18.037L28.2957 17.7729C28.6982 15.8158 29.0847 13.9879 29.5619 12.6486C29.6654 12.3572 29.7672 12.1088 29.8644 11.9002C30.5957 13.5762 31.0012 15.427 31.0012 17.3724C31.0012 24.9376 24.8685 31.0707 17.3031 31.0707C9.73776 31.0707 3.60486 24.9376 3.60486 17.3724C3.60486 15.3828 4.02906 13.4922 4.79195 11.7862ZM17.3031 0.93457C8.22472 0.93457 0.865234 8.29405 0.865234 17.3724C0.865234 26.4508 8.22472 33.8102 17.3031 33.8102C26.3817 33.8102 33.7407 26.4508 33.7407 17.3724C33.7407 8.29405 26.3817 0.93457 17.3031 0.93457ZM17.6162 11.1002C17.6162 11.1002 17.6131 11.1031 17.6066 11.1069C17.613 11.1018 17.6162 11.1002 17.6162 11.1002ZM17.2376 11.1021C17.2312 11.0982 17.2281 11.0952 17.2281 11.0952C17.2281 11.0952 17.2313 11.0968 17.2376 11.1021ZM23.6324 23.903C23.6324 23.903 23.6354 23.9 23.6413 23.8962C23.6354 23.9013 23.6324 23.903 23.6324 23.903ZM24.0307 23.892C24.0371 23.8958 24.0405 23.8988 24.0405 23.8988C24.0405 23.8988 24.0371 23.8971 24.0307 23.892ZM10.6714 23.9276C10.6714 23.9276 10.6753 23.9234 10.6832 23.9178C10.6754 23.9251 10.6714 23.9276 10.6714 23.9276ZM11.2262 23.9204C11.234 23.9259 11.2379 23.9301 11.2379 23.9301C11.2379 23.9301 11.2339 23.928 11.2262 23.9204Z" fill="#121212"/>
<path d="M42.8163 27.1034L38.8301 13.4683H42.3217L44.6858 23.2822L47.4346 13.4683H51.3381L54.0874 23.2822L56.479 13.4683H59.9702L55.9568 27.1034H52.3006L49.3863 16.9046L46.4725 27.1034H42.8163Z" fill="#121212"/>
<path d="M65.0934 27.4337C63.9205 27.4337 62.9584 27.2501 62.2071 26.8835C61.4558 26.4988 60.8967 25.9948 60.5302 25.3717C60.1637 24.7485 59.9805 24.0613 59.9805 23.3101C59.9805 22.0455 60.4751 21.0192 61.4648 20.2311C62.4544 19.4431 63.9391 19.049 65.9185 19.049H69.3821V18.7191C69.3821 17.7845 69.1161 17.0972 68.585 16.6574C68.0535 16.2175 67.3934 15.9976 66.6057 15.9976C65.8909 15.9976 65.2677 16.1717 64.7362 16.5199C64.2047 16.8498 63.8746 17.3446 63.7465 18.0044H60.3101C60.4021 17.0148 60.7317 16.1534 61.2997 15.4203C61.8864 14.6873 62.6377 14.1283 63.5539 13.7435C64.4706 13.3403 65.4968 13.1387 66.6328 13.1387C68.5757 13.1387 70.1058 13.6243 71.2239 14.5956C72.3417 15.5669 72.9008 16.9415 72.9008 18.7191V27.1037H69.9043L69.5746 24.9046C69.1712 25.6377 68.6032 26.2421 67.8702 26.719C67.1554 27.1953 66.2298 27.4337 65.0934 27.4337ZM65.8909 24.6845C66.8988 24.6845 67.6776 24.3544 68.2274 23.6948C68.7954 23.0352 69.153 22.2194 69.2998 21.2482H66.3032C65.3683 21.2482 64.6997 21.4224 64.2963 21.7705C63.8933 22.1004 63.6914 22.513 63.6914 23.0076C63.6914 23.5391 63.8933 23.9515 64.2963 24.2446C64.6997 24.5377 65.2308 24.6845 65.8909 24.6845Z" fill="#121212"/>
<path d="M78.4405 27.1034L73.4375 13.4683H77.1208L80.5849 23.7773L84.0485 13.4683H87.7323L82.7017 27.1034H78.4405Z" fill="#121212"/>
<path d="M94.8049 27.4337C93.4305 27.4337 92.2117 27.1402 91.1487 26.5539C90.086 25.9673 89.2521 25.1426 88.6471 24.0796C88.0422 23.0169 87.7402 21.7889 87.7402 20.396C87.7402 18.9849 88.0333 17.7295 88.6196 16.6299C89.2245 15.5303 90.0491 14.6781 91.0939 14.0733C92.1566 13.4502 93.4029 13.1387 94.8324 13.1387C96.1704 13.1387 97.3526 13.4319 98.3788 14.0183C99.4049 14.6048 100.202 15.4112 100.77 16.4375C101.357 17.4454 101.65 18.5725 101.65 19.8188C101.65 20.0204 101.641 20.2311 101.623 20.451C101.623 20.671 101.613 20.9 101.595 21.1383H91.2314C91.3048 22.2012 91.6713 23.0352 92.3309 23.6401C93.0088 24.2446 93.8245 24.547 94.7777 24.547C95.4921 24.547 96.0881 24.3914 96.5645 24.0796C97.0591 23.75 97.4256 23.3283 97.664 22.815H101.238C100.981 23.6766 100.55 24.4647 99.9458 25.1795C99.3591 25.8756 98.6261 26.4254 97.7463 26.8288C96.8852 27.2318 95.9044 27.4337 94.8049 27.4337ZM94.8324 15.9976C93.9713 15.9976 93.2107 16.2451 92.5507 16.7398C91.891 17.2164 91.4694 17.9494 91.2861 18.9391H98.0763C98.0212 18.041 97.6916 17.3263 97.0867 16.7948C96.4817 16.2634 95.7305 15.9976 94.8324 15.9976Z" fill="#121212"/>
<path d="M103.512 27.104V7.31104H107.03V27.104H103.512Z" fill="#121212"/>
<path d="M116.151 27.4337C114.776 27.4337 113.557 27.1402 112.494 26.5539C111.432 25.9673 110.598 25.1426 109.993 24.0796C109.388 23.0169 109.086 21.7889 109.086 20.396C109.086 18.9849 109.379 17.7295 109.965 16.6299C110.57 15.5303 111.395 14.6781 112.44 14.0733C113.503 13.4502 114.749 13.1387 116.178 13.1387C117.516 13.1387 118.698 13.4319 119.725 14.0183C120.751 14.6048 121.548 15.4112 122.116 16.4375C122.702 17.4454 122.996 18.5725 122.996 19.8188C122.996 20.0204 122.987 20.2311 122.968 20.451C122.968 20.671 122.959 20.9 122.941 21.1383H112.577C112.651 22.2012 113.017 23.0352 113.677 23.6401C114.355 24.2446 115.17 24.547 116.123 24.547C116.838 24.547 117.434 24.3914 117.91 24.0796C118.405 23.75 118.771 23.3283 119.01 22.815H122.584C122.327 23.6766 121.896 24.4647 121.292 25.1795C120.705 25.8756 119.972 26.4254 119.092 26.8288C118.231 27.2318 117.251 27.4337 116.151 27.4337ZM116.178 15.9976C115.317 15.9976 114.556 16.2451 113.896 16.7398C113.237 17.2164 112.815 17.9494 112.632 18.9391H119.422C119.367 18.041 119.037 17.3263 118.432 16.7948C117.827 16.2634 117.076 15.9976 116.178 15.9976Z" fill="#121212"/>
<path d="M130.491 27.4337C129.282 27.4337 128.219 27.2411 127.302 26.8564C126.386 26.453 125.653 25.9032 125.103 25.2067C124.553 24.5106 124.224 23.7041 124.113 22.7879H127.66C127.769 23.319 128.063 23.7775 128.539 24.1623C129.034 24.5288 129.667 24.7121 130.436 24.7121C131.206 24.7121 131.765 24.5564 132.113 24.2446C132.479 23.9332 132.663 23.5756 132.663 23.1726C132.663 22.586 132.406 22.1919 131.893 21.9905C131.38 21.7705 130.665 21.5598 129.749 21.3582C129.163 21.2299 128.567 21.0741 127.962 20.8909C127.357 20.7076 126.798 20.4785 126.285 20.2036C125.79 19.9104 125.387 19.5439 125.075 19.104C124.764 18.6458 124.608 18.0869 124.608 17.4271C124.608 16.2175 125.085 15.2004 126.038 14.3757C127.009 13.551 128.365 13.1387 130.106 13.1387C131.719 13.1387 133.002 13.5143 133.955 14.2657C134.926 15.0172 135.504 16.0526 135.687 17.3721H132.361C132.159 16.3642 131.398 15.8602 130.079 15.8602C129.419 15.8602 128.906 15.9885 128.539 16.2451C128.191 16.5016 128.017 16.8223 128.017 17.2072C128.017 17.6104 128.283 17.9311 128.814 18.1694C129.346 18.4076 130.051 18.6275 130.931 18.8291C131.884 19.049 132.754 19.2964 133.542 19.5714C134.349 19.8279 134.99 20.222 135.467 20.7534C135.943 21.2666 136.181 22.0088 136.181 22.98C136.2 23.8233 135.98 24.5835 135.522 25.2618C135.064 25.9397 134.404 26.4712 133.542 26.8564C132.681 27.2411 131.664 27.4337 130.491 27.4337Z" fill="#121212"/>
<path d="M143.833 27.4337C142.623 27.4337 141.56 27.2411 140.644 26.8564C139.728 26.453 138.994 25.9032 138.445 25.2067C137.895 24.5106 137.565 23.7041 137.455 22.7879H141.001C141.111 23.319 141.404 23.7775 141.881 24.1623C142.376 24.5288 143.008 24.7121 143.778 24.7121C144.547 24.7121 145.106 24.5564 145.455 24.2446C145.821 23.9332 146.004 23.5756 146.004 23.1726C146.004 22.586 145.748 22.1919 145.235 21.9905C144.722 21.7705 144.007 21.5598 143.091 21.3582C142.504 21.2299 141.908 21.0741 141.303 20.8909C140.699 20.7076 140.14 20.4785 139.627 20.2036C139.132 19.9104 138.729 19.5439 138.417 19.104C138.105 18.6458 137.95 18.0869 137.95 17.4271C137.95 16.2175 138.426 15.2004 139.379 14.3757C140.351 13.551 141.707 13.1387 143.448 13.1387C145.061 13.1387 146.343 13.5143 147.297 14.2657C148.268 15.0172 148.845 16.0526 149.028 17.3721H145.702C145.5 16.3642 144.74 15.8602 143.42 15.8602C142.761 15.8602 142.247 15.9885 141.881 16.2451C141.532 16.5016 141.359 16.8223 141.359 17.2072C141.359 17.6104 141.624 17.9311 142.156 18.1694C142.687 18.4076 143.393 18.6275 144.272 18.8291C145.226 19.049 146.096 19.2964 146.884 19.5714C147.691 19.8279 148.332 20.222 148.808 20.7534C149.285 21.2666 149.523 22.0088 149.523 22.98C149.541 23.8233 149.322 24.5835 148.864 25.2618C148.405 25.9397 147.745 26.4712 146.884 26.8564C146.023 27.2411 145.005 27.4337 143.833 27.4337Z" fill="#121212"/>
</g>
<defs>
<clipPath id="clip0_668_1510">
<rect width="150" height="34" fill="white"/>
</clipPath>
</defs>
</svg>
