<svg width="167" height="34" viewBox="0 0 167 34" fill="none" xmlns="http://www.w3.org/2000/svg">
<g clip-path="url(#clip0_668_1498)">
<path d="M20.3805 4.57405H8.73438V0.93457H20.3805C24.4007 0.93457 27.6595 4.19347 27.6595 8.21352V19.8598H24.02V8.21352C24.02 6.20351 22.3906 4.57405 20.3805 4.57405Z" fill="#121212"/>
<path d="M7.27895 24.9547H18.9251V28.5941H7.27895C3.2589 28.5941 0 25.3354 0 21.3152V9.66895H3.63948V21.3152C3.63948 23.3253 5.2689 24.9547 7.27895 24.9547Z" fill="#121212"/>
<path fill-rule="evenodd" clip-rule="evenodd" d="M21.1085 14.7643C21.1085 18.7844 17.8498 22.0432 13.8297 22.0432C9.80968 22.0432 6.55078 18.7844 6.55078 14.7643C6.55078 10.7442 9.80968 7.48535 13.8297 7.48535C17.8498 7.48535 21.1085 10.7442 21.1085 14.7643ZM17.4692 14.7643C17.4692 16.7743 15.8397 18.4038 13.8297 18.4038C11.8197 18.4038 10.1903 16.7743 10.1903 14.7643C10.1903 12.7543 11.8197 11.1248 13.8297 11.1248C15.8397 11.1248 17.4692 12.7543 17.4692 14.7643Z" fill="#121212"/>
<path d="M43.1907 26.2764C41.8125 26.2764 40.5718 26.0402 39.4686 25.5674C38.3659 25.0754 37.4993 24.3861 36.8693 23.4999C36.239 22.6136 35.9238 21.5797 35.9238 20.3979H39.528C39.6066 21.2841 39.9512 22.0128 40.562 22.5842C41.1919 23.1552 42.0683 23.4409 43.1907 23.4409C44.3528 23.4409 45.2587 23.165 45.9087 22.6136C46.5583 22.0426 46.8834 21.314 46.8834 20.4278C46.8834 19.7385 46.6766 19.1773 46.2632 18.7438C45.869 18.3105 45.3671 17.9757 44.7564 17.7394C44.1658 17.5031 43.3385 17.2471 42.275 16.9714C40.9361 16.6169 39.8432 16.2624 38.9962 15.9079C38.169 15.5338 37.46 14.9627 36.8693 14.1946C36.2783 13.4266 35.9831 12.4025 35.9831 11.1224C35.9831 9.94081 36.2783 8.90691 36.8693 8.0207C37.46 7.13448 38.2873 6.45507 39.3507 5.98241C40.4142 5.50975 41.6451 5.27344 43.0433 5.27344C45.0323 5.27344 46.657 5.77561 47.9173 6.78C49.1973 7.76466 49.9063 9.12353 50.0442 10.8565H46.3221C46.2632 10.1082 45.9087 9.46815 45.2587 8.93642C44.6087 8.4047 43.7523 8.13883 42.6889 8.13883C41.7237 8.13883 40.9361 8.38501 40.3254 8.87735C39.715 9.3697 39.4097 10.0787 39.4097 11.0043C39.4097 11.6344 39.5968 12.1563 39.9709 12.5699C40.3647 12.9638 40.8571 13.2789 41.4482 13.5152C42.0389 13.7515 42.8461 14.0075 43.8702 14.2832C45.2292 14.6574 46.332 15.0316 47.1789 15.4058C48.0454 15.7799 48.7741 16.3609 49.3647 17.1486C49.9755 17.9167 50.2804 18.9505 50.2804 20.2505C50.2804 21.294 49.9951 22.2788 49.4241 23.2043C48.8723 24.1298 48.0553 24.8785 46.9722 25.4495C45.9087 26.0009 44.6484 26.2764 43.1907 26.2764Z" fill="#121212"/>
<path d="M60.9894 9.52734C62.2698 9.52734 63.4119 9.79321 64.4164 10.3249C65.4402 10.8566 66.2379 11.6444 66.809 12.6882C67.38 13.7319 67.6657 14.9923 67.6657 16.4693V26.0698H64.3276V16.9715C64.3276 15.5142 63.9632 14.4015 63.2346 13.6334C62.506 12.8457 61.5113 12.4518 60.251 12.4518C58.9906 12.4518 57.9861 12.8457 57.2379 13.6334C56.5092 14.4015 56.1449 15.5142 56.1449 16.9715V26.0698H52.7773V9.79321H56.1449V11.6542C56.6963 10.9847 57.3955 10.4628 58.2424 10.0886C59.1089 9.71442 60.0246 9.52734 60.9894 9.52734Z" fill="#121212"/>
<path d="M69.3613 17.8577C69.3613 16.2231 69.6961 14.7757 70.3658 13.5153C71.0551 12.2549 71.9806 11.28 73.1424 10.5908C74.3241 9.88183 75.6237 9.52734 77.0417 9.52734C78.3221 9.52734 79.4346 9.78335 80.3798 10.2954C81.345 10.7877 82.1129 11.4081 82.684 12.1564V9.79321H86.0811V26.0698H82.684V23.6477C82.1129 24.4156 81.3348 25.0558 80.3503 25.5675C79.3655 26.0796 78.2431 26.3358 76.9827 26.3358C75.5844 26.3358 74.3044 25.9813 73.1424 25.2724C71.9806 24.5437 71.0551 23.5393 70.3658 22.2592C69.6961 20.9596 69.3613 19.4922 69.3613 17.8577ZM82.684 17.9168C82.684 16.7942 82.4478 15.8194 81.975 14.9923C81.5222 14.1652 80.9214 13.535 80.1731 13.1017C79.4248 12.6685 78.6172 12.4518 77.7507 12.4518C76.8841 12.4518 76.0769 12.6685 75.3286 13.1017C74.5799 13.5153 73.9696 14.1356 73.4968 14.9628C73.0441 15.7702 72.8177 16.7351 72.8177 17.8577C72.8177 18.9801 73.0441 19.9649 73.4968 20.8118C73.9696 21.6584 74.5799 22.3084 75.3286 22.7615C76.0965 23.1946 76.9041 23.4111 77.7507 23.4111C78.6172 23.4111 79.4248 23.1946 80.1731 22.7615C80.9214 22.328 81.5222 21.698 81.975 20.8708C82.4478 20.0239 82.684 19.0394 82.684 17.9168Z" fill="#121212"/>
<path d="M92.3949 12.1859C92.966 11.4376 93.7441 10.8074 94.7286 10.2954C95.7134 9.78335 96.826 9.52734 98.0667 9.52734C99.4846 9.52734 100.774 9.88183 101.937 10.5908C103.118 11.28 104.044 12.2549 104.713 13.5153C105.383 14.7757 105.718 16.2231 105.718 17.8577C105.718 19.4922 105.383 20.9596 104.713 22.2592C104.044 23.5393 103.118 24.5437 101.937 25.2724C100.774 25.9813 99.4846 26.3358 98.0667 26.3358C96.826 26.3358 95.7232 26.0894 94.7584 25.5974C93.7932 25.0853 93.0056 24.4549 92.3949 23.7067V33.8095H89.0273V9.79321H92.3949V12.1859ZM102.291 17.8577C102.291 16.7351 102.055 15.7702 101.582 14.9628C101.129 14.1356 100.519 13.5153 99.7507 13.1017C99.002 12.6685 98.1948 12.4518 97.3282 12.4518C96.4813 12.4518 95.6741 12.6685 94.9058 13.1017C94.1575 13.535 93.5472 14.1652 93.0744 14.9923C92.6217 15.8194 92.3949 16.7942 92.3949 17.9168C92.3949 19.0394 92.6217 20.0239 93.0744 20.8708C93.5472 21.698 94.1575 22.328 94.9058 22.7615C95.6741 23.1946 96.4813 23.4111 97.3282 23.4111C98.1948 23.4111 99.002 23.1946 99.7507 22.7615C100.519 22.3084 101.129 21.6584 101.582 20.8118C102.055 19.9649 102.291 18.9801 102.291 17.8577Z" fill="#121212"/>
<path d="M114.335 26.2764C112.957 26.2764 111.716 26.0402 110.613 25.5674C109.51 25.0754 108.644 24.3861 108.014 23.4999C107.384 22.6136 107.068 21.5797 107.068 20.3979H110.673C110.751 21.2841 111.096 22.0128 111.706 22.5842C112.336 23.1552 113.213 23.4409 114.335 23.4409C115.497 23.4409 116.403 23.165 117.053 22.6136C117.703 22.0426 118.028 21.314 118.028 20.4278C118.028 19.7385 117.821 19.1773 117.408 18.7438C117.014 18.3105 116.512 17.9757 115.901 17.7394C115.31 17.5031 114.483 17.2471 113.42 16.9714C112.081 16.6169 110.987 16.2624 110.141 15.9079C109.314 15.5338 108.605 14.9627 108.014 14.1946C107.423 13.4266 107.128 12.4025 107.128 11.1224C107.128 9.94081 107.423 8.90691 108.014 8.0207C108.605 7.13448 109.432 6.45507 110.495 5.98241C111.559 5.50975 112.79 5.27344 114.188 5.27344C116.177 5.27344 117.802 5.77561 119.062 6.78C120.342 7.76466 121.051 9.12353 121.189 10.8565H117.467C117.408 10.1082 117.053 9.46815 116.403 8.93642C115.753 8.4047 114.896 8.13883 113.833 8.13883C112.868 8.13883 112.081 8.38501 111.47 8.87735C110.86 9.3697 110.554 10.0787 110.554 11.0043C110.554 11.6344 110.741 12.1563 111.115 12.5699C111.509 12.9638 112.002 13.2789 112.592 13.5152C113.183 13.7515 113.991 14.0075 115.015 14.2832C116.374 14.6574 117.477 15.0316 118.323 15.4058C119.19 15.7799 119.919 16.3609 120.509 17.1486C121.12 17.9167 121.425 18.9505 121.425 20.2505C121.425 21.294 121.14 22.2788 120.568 23.2043C120.017 24.1298 119.2 24.8785 118.117 25.4495C117.053 26.0009 115.793 26.2764 114.335 26.2764Z" fill="#121212"/>
<path d="M132.341 9.52772C133.581 9.52772 134.685 9.79359 135.649 10.3253C136.634 10.857 137.402 11.6448 137.954 12.6885C138.525 13.7323 138.81 14.9926 138.81 16.4697V26.0702H135.472V16.9719C135.472 15.5145 135.108 14.4019 134.379 13.6338C133.651 12.8461 132.656 12.4522 131.396 12.4522C130.135 12.4522 129.131 12.8461 128.382 13.6338C127.654 14.4019 127.289 15.5145 127.289 16.9719V26.0702H123.922V4.21045H127.289V11.6841C127.861 10.9949 128.579 10.4631 129.446 10.089C130.332 9.71479 131.297 9.52772 132.341 9.52772Z" fill="#121212"/>
<path d="M148.688 26.3358C147.152 26.3358 145.764 25.9912 144.523 25.3018C143.283 24.5929 142.308 23.608 141.599 22.3477C140.89 21.0677 140.535 19.5908 140.535 17.9168C140.535 16.2625 140.899 14.7953 141.628 13.5153C142.357 12.2352 143.351 11.2505 144.612 10.5612C145.872 9.87197 147.28 9.52734 148.836 9.52734C150.392 9.52734 151.8 9.87197 153.06 10.5612C154.321 11.2505 155.315 12.2352 156.044 13.5153C156.773 14.7953 157.137 16.2625 157.137 17.9168C157.137 19.5711 156.763 21.0382 156.014 22.3182C155.266 23.5982 154.242 24.5929 152.942 25.3018C151.662 25.9912 150.244 26.3358 148.688 26.3358ZM148.688 23.4111C149.555 23.4111 150.362 23.2044 151.111 22.791C151.879 22.3775 152.499 21.757 152.972 20.9297C153.444 20.1029 153.681 19.0984 153.681 17.9168C153.681 16.7352 153.454 15.7407 153.001 14.9332C152.548 14.1061 151.947 13.4857 151.199 13.0722C150.451 12.6586 149.643 12.4518 148.777 12.4518C147.911 12.4518 147.103 12.6586 146.355 13.0722C145.626 13.4857 145.045 14.1061 144.612 14.9332C144.179 15.7407 143.962 16.7352 143.962 17.9168C143.962 19.6694 144.405 21.0284 145.291 21.9932C146.197 22.9387 147.329 23.4111 148.688 23.4111Z" fill="#121212"/>
<path d="M162.918 12.5403V21.5502C162.918 22.1605 163.056 22.6038 163.332 22.8793C163.627 23.1355 164.12 23.2637 164.809 23.2637H166.877V26.0697H164.218C162.702 26.0697 161.54 25.7152 160.733 25.0062C159.925 24.2973 159.521 23.1454 159.521 21.5502V12.5403H157.602V9.79312H159.521V5.74609H162.918V9.79312H166.877V12.5403H162.918Z" fill="#121212"/>
</g>
<defs>
<clipPath id="clip0_668_1498">
<rect width="167" height="34" fill="white"/>
</clipPath>
</defs>
</svg>
