<svg width="163" height="26" viewBox="0 0 163 26" fill="none" xmlns="http://www.w3.org/2000/svg">
<g clip-path="url(#clip0_668_1489)">
<path d="M0.876953 25.089V0.322754H5.53125L17.4944 17.7653V0.322754H22.1487V25.089H17.4944L5.53125 7.68185V25.089H0.876953Z" fill="#121212"/>
<path d="M33.9194 25.5136C32.1011 25.5136 30.4892 25.1363 29.0833 24.3813C27.6773 23.6266 26.5743 22.5651 25.7742 21.1972C24.9741 19.8292 24.5742 18.2487 24.5742 16.4562C24.5742 14.6399 24.962 13.0243 25.738 11.609C26.5377 10.1938 27.6287 9.09703 29.0105 8.31867C30.4164 7.51672 32.0649 7.11572 33.9556 7.11572C35.7256 7.11572 37.2888 7.49312 38.6465 8.24791C40.0041 9.0027 41.0585 10.0405 41.81 11.3614C42.5859 12.6586 42.9737 14.1092 42.9737 15.7131C42.9737 15.9726 42.9616 16.2439 42.9371 16.5269C42.9371 16.8099 42.9251 17.1046 42.9009 17.4115H29.1923C29.2892 18.7794 29.774 19.8527 30.6469 20.6312C31.5436 21.4093 32.6225 21.7987 33.8832 21.7987C34.8285 21.7987 35.6162 21.598 36.2465 21.1972C36.901 20.7725 37.3858 20.23 37.7011 19.5697H42.4282C42.0887 20.6782 41.5191 21.6923 40.719 22.6125C39.9434 23.5088 38.9739 24.2161 37.8102 24.7351C36.6709 25.2541 35.374 25.5136 33.9194 25.5136ZM33.9556 10.7953C32.8164 10.7953 31.8103 11.1137 30.9377 11.7506C30.0648 12.3638 29.5073 13.3073 29.2651 14.581H38.2466C38.1738 13.4252 37.7374 12.5053 36.9376 11.8213C36.1375 11.1373 35.1435 10.7953 33.9556 10.7953Z" fill="#121212"/>
<path d="M42.1191 25.0877L48.664 16.3134L42.1191 7.53906H47.1008L51.6823 13.766L56.2275 7.53906H61.2455L54.6639 16.3134L61.2455 25.0877H56.2275L51.6823 18.8608L47.1008 25.0877H42.1191Z" fill="#121212"/>
<path d="M70.4272 25.0877C68.5361 25.0877 67.0212 24.6396 65.8815 23.7432C64.7423 22.8469 64.1727 21.255 64.1727 18.9669V11.3248H61.082V7.53908H64.1727L64.7182 2.8335H68.827V7.53908H73.6997V11.3248H68.827V19.0025C68.827 19.8515 69.0088 20.4413 69.3724 20.7713C69.7602 21.0781 70.4147 21.2312 71.3359 21.2312H73.5907V25.0877H70.4272Z" fill="#121212"/>
<path d="M75.877 25.0889V7.54028H79.9862L80.3861 9.91076C80.9678 9.06164 81.7317 8.38944 82.677 7.89411C83.6465 7.37519 84.7616 7.11572 86.0223 7.11572C88.81 7.11572 90.7856 8.16536 91.9494 10.2646C92.6039 9.29751 93.4764 8.53093 94.5674 7.96488C95.6825 7.39879 96.8945 7.11572 98.2035 7.11572C100.555 7.11572 102.361 7.79975 103.622 9.16779C104.882 10.5358 105.512 12.5407 105.512 15.1824V25.0889H100.858V15.607C100.858 14.0975 100.555 12.9417 99.949 12.1398C99.3673 11.3378 98.4581 10.9368 97.222 10.9368C95.9612 10.9368 94.9431 11.385 94.1675 12.2812C93.4161 13.1776 93.0403 14.4277 93.0403 16.0316V25.0889H88.3857V15.607C88.3857 14.0975 88.0828 12.9417 87.4769 12.1398C86.8707 11.3378 85.9374 10.9368 84.6767 10.9368C83.4405 10.9368 82.4344 11.385 81.6589 12.2812C80.9074 13.1776 80.5317 14.4277 80.5317 16.0316V25.0889H75.877Z" fill="#121212"/>
<path d="M116.769 25.5136C115.024 25.5136 113.448 25.1242 112.042 24.346C110.66 23.5675 109.557 22.4943 108.733 21.1263C107.933 19.7348 107.533 18.1309 107.533 16.3146C107.533 14.4984 107.945 12.9063 108.769 11.5383C109.594 10.1467 110.697 9.06164 112.078 8.28329C113.484 7.50494 115.06 7.11572 116.806 7.11572C118.527 7.11572 120.078 7.50494 121.46 8.28329C122.866 9.06164 123.969 10.1467 124.769 11.5383C125.593 12.9063 126.005 14.4984 126.005 16.3146C126.005 18.1309 125.593 19.7348 124.769 21.1263C123.969 22.4943 122.866 23.5675 121.46 24.346C120.054 25.1242 118.49 25.5136 116.769 25.5136ZM116.769 21.5862C117.981 21.5862 119.036 21.1498 119.933 20.2773C120.83 19.381 121.278 18.06 121.278 16.3146C121.278 14.5692 120.83 13.2601 119.933 12.3874C119.036 11.4911 117.993 11.0429 116.806 11.0429C115.569 11.0429 114.503 11.4911 113.606 12.3874C112.733 13.2601 112.297 14.5692 112.297 16.3146C112.297 18.06 112.733 19.381 113.606 20.2773C114.503 21.1498 115.557 21.5862 116.769 21.5862Z" fill="#121212"/>
<path d="M132.333 25.0877L125.715 7.53906H130.588L135.169 20.8069L139.751 7.53906H144.623L137.969 25.0877H132.333Z" fill="#121212"/>
<path d="M153.617 25.5136C151.799 25.5136 150.186 25.1363 148.781 24.3813C147.375 23.6266 146.272 22.5651 145.471 21.1972C144.672 19.8292 144.271 18.2487 144.271 16.4562C144.271 14.6399 144.66 13.0243 145.435 11.609C146.235 10.1938 147.326 9.09703 148.708 8.31867C150.114 7.51672 151.762 7.11572 153.653 7.11572C155.423 7.11572 156.986 7.49312 158.344 8.24791C159.701 9.0027 160.756 10.0405 161.507 11.3614C162.283 12.6586 162.671 14.1092 162.671 15.7131C162.671 15.9726 162.659 16.2439 162.635 16.5269C162.635 16.8099 162.622 17.1046 162.598 17.4115H148.89C148.986 18.7794 149.472 19.8527 150.344 20.6312C151.241 21.4093 152.32 21.7987 153.58 21.7987C154.526 21.7987 155.314 21.598 155.944 21.1972C156.598 20.7725 157.083 20.23 157.398 19.5697H162.125C161.786 20.6782 161.216 21.6923 160.417 22.6125C159.641 23.5088 158.671 24.2161 157.507 24.7351C156.368 25.2541 155.071 25.5136 153.617 25.5136ZM153.653 10.7953C152.514 10.7953 151.508 11.1137 150.635 11.7506C149.762 12.3638 149.205 13.3073 148.962 14.581H157.944C157.871 13.4252 157.435 12.5053 156.635 11.8213C155.835 11.1373 154.841 10.7953 153.653 10.7953Z" fill="#121212"/>
</g>
<defs>
<clipPath id="clip0_668_1489">
<rect width="163" height="26" fill="white"/>
</clipPath>
</defs>
</svg>
