<svg width="104" height="34" viewBox="0 0 104 34" fill="none" xmlns="http://www.w3.org/2000/svg">
<path d="M15.655 1.95996H20.6874L15.2035 25.0439H6.353L0.869141 1.95996H5.90184L9.99763 20.9702H11.5592L15.655 1.95996Z" fill="#121212"/>
<path d="M25.4882 18.4926C25.5113 19.5337 25.7889 20.2919 26.3211 20.7671C26.8763 21.2197 27.6631 21.446 28.6814 21.446C30.8331 21.446 32.7537 21.3781 34.4428 21.2424L35.4147 21.1405L35.4842 24.5014C32.8232 25.135 30.4165 25.4519 28.2648 25.4519C25.6503 25.4519 23.7527 24.7729 22.5728 23.4149C21.3925 22.0571 20.8027 19.8505 20.8027 16.7953C20.8027 10.7075 23.3595 7.66357 28.4729 7.66357C33.5171 7.66357 36.0394 10.2209 36.0394 15.3356L35.6923 18.4926H25.4882ZM31.4579 15.0301C31.4579 13.6722 31.2382 12.733 30.7986 12.2125C30.3589 11.6693 29.5837 11.3977 28.4729 11.3977C27.3855 11.3977 26.6102 11.6806 26.1475 12.2464C25.7079 12.7896 25.4767 13.7174 25.4533 15.0301H31.4579Z" fill="#121212"/>
<path d="M38.668 25.0444V8.07093H43.2841V9.87012C45.2277 8.73858 47.0789 8.00303 48.8374 7.66357V12.2464C46.9629 12.6312 45.3549 13.0272 44.0129 13.4346L43.3187 13.6722V25.0444H38.668Z" fill="#121212"/>
<path d="M60.5009 11.9406H56.2319V18.8997C56.2319 19.5787 56.2435 20.0652 56.2669 20.3594C56.313 20.631 56.4404 20.8686 56.6485 21.0723C56.8801 21.276 57.2268 21.3779 57.6899 21.3779L60.3277 21.31L60.5359 24.9424C58.9854 25.2819 57.8055 25.4516 56.9957 25.4516C54.913 25.4516 53.49 24.9987 52.7267 24.0936C51.963 23.1657 51.5813 21.4684 51.5813 19.0016V11.9406H49.5332V8.07065H51.5813V3.35205H56.2319V8.07065H60.5009V11.9406Z" fill="#121212"/>
<path d="M62.8359 25.0441V8.07063H67.4869V25.0441H62.8359ZM62.8359 5.89804V1.28125H67.4869V5.89804H62.8359Z" fill="#121212"/>
<path d="M86.8132 27.149C86.8132 29.0955 86.0495 30.5323 84.5225 31.4603C82.9954 32.3883 80.9243 32.8521 78.3098 32.8521C75.7184 32.8521 73.7168 32.5126 72.3053 31.8336C70.9169 31.155 70.2227 29.9213 70.2227 28.1337C70.2227 26.7077 71.0558 25.3614 72.7219 24.0939C71.8656 23.528 71.4375 22.668 71.4375 21.5139C71.4375 21.0613 71.7846 20.3144 72.4788 19.2734L72.791 18.7982C71.2179 17.6892 70.4311 16.0598 70.4311 13.9098C70.4311 11.7372 71.0904 10.1643 72.4094 9.19116C73.7513 8.218 75.5214 7.73145 77.7197 7.73145C78.7145 7.73145 79.6983 7.8446 80.6701 8.07091L81.2253 8.17275L86.8132 8.00301V11.6354L84.2103 11.4317C84.7191 12.2011 84.9736 12.9706 84.9736 13.7401C84.9736 16.0032 84.3838 17.5647 83.2035 18.4247C82.0236 19.2847 80.1725 19.7147 77.6502 19.7147C77.118 19.7147 76.6438 19.6695 76.2272 19.5789C75.996 20.1673 75.8801 20.6539 75.8801 21.0386C75.8801 21.4008 76.077 21.6497 76.4702 21.7855C76.8634 21.9213 77.7892 22.0005 79.2467 22.0231C82.1622 22.0457 84.1523 22.4306 85.2167 23.1772C86.2811 23.9016 86.8132 25.2254 86.8132 27.149ZM74.8042 27.6583C74.8042 28.6313 76.0191 29.118 78.4485 29.118C80.9013 29.118 82.1276 28.5521 82.1276 27.4205C82.1276 26.8095 81.9195 26.4137 81.5029 26.2326C81.0863 26.0742 80.207 25.9837 78.8651 25.9611L75.7414 25.7234C75.1167 26.3344 74.8042 26.9793 74.8042 27.6583ZM75.0818 13.774C75.0818 15.4261 75.9611 16.2521 77.7197 16.2521C79.5013 16.2521 80.3921 15.4261 80.3921 13.774C80.3921 12.0993 79.5013 11.2619 77.7197 11.2619C75.9611 11.2619 75.0818 12.0993 75.0818 13.774Z" fill="#121212"/>
<path d="M89.8744 10.0059C91.1008 8.44434 93.1485 7.66357 96.0179 7.66357C98.887 7.66357 100.935 8.44434 102.161 10.0059C103.387 11.5448 104.001 13.7174 104.001 16.5237C104.001 22.4757 101.34 25.4519 96.0179 25.4519C90.6961 25.4519 88.0352 22.4757 88.0352 16.5237C88.0352 13.7174 88.6484 11.5448 89.8744 10.0059ZM93.4496 20.3597C93.9353 21.1745 94.7915 21.5818 96.0179 21.5818C97.2443 21.5818 98.0887 21.1745 98.5517 20.3597C99.0375 19.545 99.2805 18.2663 99.2805 16.5237C99.2805 14.7811 99.0375 13.5138 98.5517 12.7217C98.0887 11.9296 97.2443 11.5335 96.0179 11.5335C94.7915 11.5335 93.9353 11.9296 93.4496 12.7217C92.9869 13.5138 92.7553 14.7811 92.7553 16.5237C92.7553 18.2663 92.9869 19.545 93.4496 20.3597Z" fill="#121212"/>
</svg>
