<svg width="38" height="38" viewBox="0 0 38 38" fill="none" xmlns="http://www.w3.org/2000/svg">
<path d="M17.902 37.0196C17.902 37.5611 18.3409 38 18.8824 38C19.4238 38 19.8627 37.5611 19.8627 37.0196V26.2288C19.8627 24.447 22.017 23.5547 23.277 24.8146L31.0183 32.556C31.4012 32.9389 32.0219 32.9389 32.4048 32.556C32.7877 32.1731 32.7877 31.5524 32.4048 31.1695L24.7475 23.5122C23.4876 22.2523 24.38 20.098 26.1618 20.098H37.0196C37.5611 20.098 38 19.6591 38 19.1176C38 18.5762 37.5611 18.1373 37.0196 18.1373H25.9936C24.2117 18.1373 23.3194 15.983 24.5793 14.723L32.3207 6.98169C32.7036 6.59882 32.7036 5.97807 32.3207 5.5952C31.9378 5.21234 31.3171 5.21234 30.9342 5.5952L23.277 13.2525C22.017 14.5124 19.8627 13.62 19.8627 11.8382V0.980392C19.8627 0.438936 19.4238 0 18.8824 0C18.3409 0 17.902 0.438936 17.902 0.980391V11.8382C17.902 13.62 15.7477 14.5124 14.4877 13.2525L6.92123 5.68593C6.53836 5.30306 5.91761 5.30306 5.53474 5.68593C5.15187 6.06879 5.15187 6.68954 5.53474 7.07241L13.1854 14.723C14.4453 15.983 13.553 18.1373 11.7712 18.1373H0.980392C0.438936 18.1373 6.65222e-08 18.5762 4.28544e-08 19.1176C1.91865e-08 19.6591 0.438938 20.098 0.980393 20.098H11.6029C13.3848 20.098 14.2771 22.2523 13.0172 23.5123L5.45064 31.0788C5.06777 31.4616 5.06777 32.0824 5.45064 32.4653C5.8335 32.8481 6.45425 32.8481 6.83712 32.4653L14.4877 24.8146C15.7477 23.5547 17.902 24.447 17.902 26.2288V37.0196Z" fill="#A39E94"/>
</svg>
